# Blender v2.82 (sub 7) OBJ File: ''
# www.blender.org
mtllib giftbox.mtl
o defaultMaterial.004_defaultMaterial.005
v 0.906052 -0.988995 0.917057
v 0.906052 0.558997 0.917057
v -0.906052 0.558997 0.917057
v -0.906052 -0.988995 0.917057
v -0.906052 -0.988995 -0.917057
v -0.906052 0.558997 -0.917057
v 0.906052 0.558997 -0.917057
v 0.906052 -0.988995 -0.917057
v 0.917057 -0.988995 -0.906052
v 0.917057 0.558997 -0.906052
v 0.917057 0.558997 0.906052
v 0.917057 -0.988995 0.906052
v -0.906052 -1.000000 -0.906052
v 0.906052 -1.000000 -0.906052
v 0.906052 -1.000000 0.906052
v -0.906052 -1.000000 0.906052
v -0.917057 -0.988995 0.906052
v -0.906052 -1.000000 0.906052
v -0.906052 -0.988995 0.917057
v -0.906052 -1.000000 -0.906052
v -0.917057 -0.988995 -0.906052
v -0.906052 -0.988995 -0.917057
v 0.906052 -1.000000 0.906052
v 0.917057 -0.988995 0.906052
v 0.906052 -0.988995 0.917057
v 0.906052 -1.000000 -0.906052
v 0.906052 -0.988995 -0.917057
v 0.917057 -0.988995 -0.906052
v -0.906052 -1.000000 -0.906052
v -0.906052 -1.000000 0.906052
v -0.917057 -0.988995 0.906052
v -0.917057 -0.988995 -0.906052
v -0.906052 0.558997 -0.917057
v -0.906052 -0.988995 -0.917057
v -0.917057 -0.988995 -0.906052
v -0.917057 0.558997 -0.906052
v 0.906052 -1.000000 -0.906052
v -0.906052 -1.000000 -0.906052
v -0.906052 -0.988995 -0.917057
v 0.906052 -0.988995 -0.917057
v 0.917057 0.558997 -0.906052
v 0.917057 -0.988995 -0.906052
v 0.906052 -0.988995 -0.917057
v 0.906052 0.558997 -0.917057
v 0.906052 -1.000000 0.906052
v 0.906052 -1.000000 -0.906052
v 0.917057 -0.988995 -0.906052
v 0.917057 -0.988995 0.906052
v 0.906052 0.558997 0.917057
v 0.906052 -0.988995 0.917057
v 0.917057 -0.988995 0.906052
v 0.917057 0.558997 0.906052
v -0.906052 -1.000000 0.906052
v 0.906052 -1.000000 0.906052
v 0.906052 -0.988995 0.917057
v -0.906052 -0.988995 0.917057
v -0.906052 -0.988995 0.917057
v -0.906052 0.558997 0.917057
v -0.917057 0.558997 0.906052
v -0.917057 -0.988995 0.906052
v -0.917057 -0.988995 0.906052
v -0.917057 0.558997 0.906052
v -0.917057 0.558997 -0.906052
v -0.917057 -0.988995 -0.906052
v 0.901041 -0.983984 0.904210
v -0.901040 -0.983984 0.904210
v -0.900437 0.558997 0.903501
v 0.900437 0.558997 0.903501
v -0.901041 -0.983984 -0.904210
v 0.901040 -0.983984 -0.904210
v 0.900437 0.558997 -0.903501
v -0.900437 0.558997 -0.903501
v 0.904210 -0.983984 -0.901041
v 0.904210 -0.983984 0.901040
v 0.903501 0.558997 0.900437
v 0.903501 0.558997 -0.900437
v -0.901041 -0.987153 -0.901040
v -0.901040 -0.987153 0.901041
v 0.901041 -0.987153 0.901040
v 0.901040 -0.987153 -0.901041
v -0.904210 -0.983984 0.901041
v -0.901040 -0.983984 0.904210
v -0.901040 -0.987153 0.901041
v -0.901041 -0.987153 -0.901040
v -0.901041 -0.983984 -0.904210
v -0.904210 -0.983984 -0.901040
v 0.901041 -0.987153 0.901040
v 0.901041 -0.983984 0.904210
v 0.904210 -0.983984 0.901040
v 0.901040 -0.987153 -0.901041
v 0.904210 -0.983984 -0.901041
v 0.901040 -0.983984 -0.904210
v -0.901041 -0.987153 -0.901040
v -0.904210 -0.983984 -0.901040
v -0.904210 -0.983984 0.901041
v -0.901040 -0.987153 0.901041
v -0.900437 0.558997 -0.903501
v -0.903501 0.558997 -0.900437
v -0.904210 -0.983984 -0.901040
v -0.901041 -0.983984 -0.904210
v 0.901040 -0.987153 -0.901041
v 0.901040 -0.983984 -0.904210
v -0.901041 -0.983984 -0.904210
v -0.901041 -0.987153 -0.901040
v 0.903501 0.558997 -0.900437
v 0.900437 0.558997 -0.903501
v 0.901040 -0.983984 -0.904210
v 0.904210 -0.983984 -0.901041
v 0.901041 -0.987153 0.901040
v 0.904210 -0.983984 0.901040
v 0.904210 -0.983984 -0.901041
v 0.901040 -0.987153 -0.901041
v 0.900437 0.558997 0.903501
v 0.903501 0.558997 0.900437
v 0.904210 -0.983984 0.901040
v 0.901041 -0.983984 0.904210
v -0.901040 -0.987153 0.901041
v -0.901040 -0.983984 0.904210
v 0.901041 -0.983984 0.904210
v 0.901041 -0.987153 0.901040
v -0.901040 -0.983984 0.904210
v -0.904210 -0.983984 0.901041
v -0.903501 0.558997 0.900437
v -0.900437 0.558997 0.903501
v -0.904210 -0.983984 0.901041
v -0.904210 -0.983984 -0.901040
v -0.903501 0.558997 -0.900437
v -0.903501 0.558997 0.900437
v -0.906052 0.558997 -0.917057
v -0.917057 0.558997 -0.906052
v -0.903501 0.558997 -0.900437
v -0.900437 0.558997 -0.903501
v 0.917057 0.558997 -0.906052
v 0.906052 0.558997 -0.917057
v 0.900437 0.558997 -0.903501
v 0.903501 0.558997 -0.900437
v 0.906052 0.558997 0.917057
v 0.917057 0.558997 0.906052
v 0.903501 0.558997 0.900437
v 0.900437 0.558997 0.903501
v -0.917057 0.558997 0.906052
v -0.906052 0.558997 0.917057
v -0.900437 0.558997 0.903501
v -0.903501 0.558997 0.900437
v -0.917057 0.558997 -0.906052
v -0.917057 0.558997 0.906052
v -0.903501 0.558997 0.900437
v -0.903501 0.558997 -0.900437
v -0.906052 0.558997 0.917057
v 0.906052 0.558997 0.917057
v 0.900437 0.558997 0.903501
v -0.900437 0.558997 0.903501
v 0.906052 0.558997 -0.917057
v -0.906052 0.558997 -0.917057
v -0.900437 0.558997 -0.903501
v 0.900437 0.558997 -0.903501
v 0.917057 0.558997 0.906052
v 0.917057 0.558997 -0.906052
v 0.903501 0.558997 -0.900437
v 0.903501 0.558997 0.900437
vt 0.197473 0.514113
vt 0.197473 0.279544
vt 0.000000 0.279544
vt 0.000000 0.514113
vt 0.870233 0.998576
vt 0.870233 0.764007
vt 0.672760 0.764007
vt 0.672760 0.998576
vt 0.475213 0.764005
vt 0.475213 0.998573
vt 0.672760 0.998575
vt 0.672760 0.764006
vt 0.470325 0.289961
vt 0.238942 0.289961
vt 0.238942 0.524530
vt 0.470325 0.524530
vt 0.197534 0.515537
vt 0.198938 0.514113
vt 0.197473 0.514113
vt 0.871698 0.764007
vt 0.870294 0.762582
vt 0.870233 0.764007
vt 0.198938 0.279544
vt 0.197534 0.278120
vt 0.197473 0.279544
vt 0.871698 0.998576
vt 0.870233 0.998576
vt 0.870294 1.000000
vt 0.475213 0.526587
vt 0.473761 0.526587
vt 0.473761 0.761156
vt 0.475213 0.761156
vt 0.672760 0.526586
vt 0.672712 0.525161
vt 0.475165 0.525162
vt 0.475213 0.526587
vt 0.870233 0.998576
vt 0.871698 0.998576
vt 0.871698 0.764007
vt 0.870233 0.764007
vt 0.672712 1.000000
vt 0.672760 0.998575
vt 0.475213 0.998573
vt 0.475165 0.999998
vt 0.475213 0.764005
vt 0.473761 0.764005
vt 0.473761 0.998574
vt 0.475213 0.998573
vt 0.672760 0.764006
vt 0.672712 0.762582
vt 0.475165 0.762580
vt 0.475213 0.764005
vt 0.197473 0.514113
vt 0.198938 0.514113
vt 0.198938 0.279544
vt 0.197473 0.279544
vt 0.475213 0.761156
vt 0.475165 0.762580
vt 0.672712 0.762579
vt 0.672760 0.761155
vt 0.475213 0.526587
vt 0.475213 0.761156
vt 0.672760 0.761155
vt 0.672760 0.526586
vt 0.864000 0.057244
vt 0.667162 0.057166
vt 0.667163 0.290438
vt 0.864000 0.290360
vt 0.470325 0.290360
vt 0.667163 0.290438
vt 0.667163 0.057166
vt 0.470325 0.057244
vt 0.898148 0.290925
vt 0.701238 0.290848
vt 0.701238 0.524119
vt 0.898148 0.524040
vt 0.700833 0.524119
vt 0.700833 0.290848
vt 0.470730 0.290848
vt 0.470729 0.524119
vt 0.470730 0.290438
vt 0.470325 0.290848
vt 0.470730 0.290848
vt 0.700833 0.290848
vt 0.701238 0.290848
vt 0.700833 0.290438
vt 0.470729 0.524119
vt 0.470325 0.524119
vt 0.470729 0.524530
vt 0.700833 0.524119
vt 0.700833 0.524530
vt 0.701238 0.524119
vt 0.470730 0.290848
vt 0.700833 0.290848
vt 0.700833 0.290438
vt 0.470730 0.290438
vt 0.869670 0.528490
vt 0.672760 0.528580
vt 0.672773 0.528977
vt 0.869684 0.528900
vt 0.700833 0.290848
vt 0.700833 0.524119
vt 0.701238 0.524119
vt 0.701238 0.290848
vt 0.701238 0.290848
vt 0.898148 0.290925
vt 0.898161 0.290528
vt 0.701251 0.290438
vt 0.700833 0.524119
vt 0.470729 0.524119
vt 0.470729 0.524530
vt 0.700833 0.524530
vt 0.701251 0.524530
vt 0.898161 0.524437
vt 0.898148 0.524040
vt 0.701238 0.524119
vt 0.470729 0.524119
vt 0.470730 0.290848
vt 0.470325 0.290848
vt 0.470325 0.524119
vt 0.672760 0.762489
vt 0.869670 0.762582
vt 0.869684 0.762172
vt 0.672773 0.762092
vt 0.672773 0.762092
vt 0.869684 0.762172
vt 0.869684 0.528900
vt 0.672773 0.528977
vt 0.471404 0.526681
vt 0.473135 0.525954
vt 0.471730 0.524530
vt 0.471013 0.526284
vt 0.471013 0.760193
vt 0.471730 0.761948
vt 0.473135 0.760523
vt 0.471404 0.759796
vt 0.240672 0.759796
vt 0.238942 0.760523
vt 0.240347 0.761948
vt 0.241064 0.760193
vt 0.241064 0.526284
vt 0.240347 0.524530
vt 0.238942 0.525954
vt 0.240672 0.526681
vt 0.471013 0.526284
vt 0.471730 0.524530
vt 0.240347 0.524530
vt 0.241064 0.526284
vt 0.240672 0.526681
vt 0.238942 0.525954
vt 0.238942 0.760523
vt 0.240672 0.759796
vt 0.471404 0.759796
vt 0.473135 0.760523
vt 0.473135 0.525954
vt 0.471404 0.526681
vt 0.241064 0.760193
vt 0.240347 0.761948
vt 0.471730 0.761948
vt 0.471013 0.760193
vn -0.0060 -0.0071 1.0000
vn 0.0060 -0.0070 1.0000
vn 0.0060 0.0087 0.9999
vn -0.0060 0.0087 0.9999
vn 0.0060 -0.0071 -1.0000
vn -0.0060 -0.0070 -1.0000
vn -0.0060 0.0087 -0.9999
vn 0.0060 0.0087 -0.9999
vn 1.0000 -0.0071 0.0060
vn 1.0000 -0.0070 -0.0060
vn 0.9999 0.0087 -0.0060
vn 0.9999 0.0087 0.0060
vn -0.0061 -1.0000 0.0060
vn -0.0060 -1.0000 -0.0061
vn 0.0061 -1.0000 -0.0060
vn 0.0060 -1.0000 0.0061
vn -1.0000 -0.0070 0.0060
vn -0.0060 -0.0070 1.0000
vn -1.0000 -0.0070 -0.0060
vn 1.0000 -0.0070 0.0060
vn 0.0060 -0.0070 -1.0000
vn -0.0060 -1.0000 -0.0060
vn -0.0060 -1.0000 0.0060
vn -0.9999 0.0087 -0.0061
vn -0.0060 0.0088 -0.9999
vn 0.0060 -1.0000 -0.0060
vn 0.0060 0.0088 -0.9999
vn 0.9999 0.0088 -0.0060
vn 0.0060 -1.0000 0.0060
vn 0.9999 0.0088 0.0061
vn 0.0060 0.0088 0.9999
vn 0.0061 -0.0070 1.0000
vn -0.0061 0.0088 0.9999
vn -0.9999 0.0088 0.0060
vn -0.9999 0.0087 0.0060
vn -0.0017 0.0084 -1.0000
vn -0.0017 0.0016 -1.0000
vn 0.0017 0.0015 -1.0000
vn 0.0017 0.0084 -1.0000
vn 0.0017 0.0084 1.0000
vn 0.0017 0.0016 1.0000
vn -0.0017 0.0015 1.0000
vn -0.0017 0.0084 1.0000
vn -1.0000 0.0084 0.0017
vn -1.0000 0.0016 0.0017
vn -1.0000 0.0016 -0.0017
vn -1.0000 0.0084 -0.0017
vn -0.0018 1.0000 0.0018
vn 0.0018 1.0000 0.0018
vn 0.0018 1.0000 -0.0018
vn -0.0018 1.0000 -0.0018
vn 1.0000 0.0016 -0.0017
vn 0.0017 0.0016 -1.0000
vn 0.0017 1.0000 -0.0017
vn 0.0017 1.0000 0.0018
vn 1.0000 0.0016 0.0017
vn -0.0017 1.0000 -0.0018
vn -0.0018 1.0000 0.0017
vn -0.0017 0.0016 1.0000
vn 0.0018 1.0000 -0.0000
vn 1.0000 0.0016 0.0000
vn 0.0016 -0.0004 1.0000
vn 1.0000 0.0084 0.0017
vn 1.0000 -0.0004 0.0017
vn 0.0000 1.0000 0.0017
vn 0.0000 0.0015 1.0000
vn -1.0000 -0.0004 0.0017
vn -0.0017 -0.0004 1.0000
vn -0.0018 1.0000 0.0000
vn -1.0000 0.0016 0.0000
vn -0.0017 -0.0004 -1.0000
vn -1.0000 -0.0004 -0.0018
vn -0.0018 1.0000 -0.0017
vn -0.0000 1.0000 -0.0018
vn 0.0000 0.0016 -1.0000
vn 0.0017 -0.0004 -1.0000
vn 1.0000 -0.0004 -0.0018
vn 1.0000 0.0084 -0.0018
vn 1.0000 0.0015 0.0016
vn 0.0018 0.0084 1.0000
vn 1.0000 0.0084 0.0018
vn -1.0000 0.0084 0.0018
vn 0.0061 0.0087 -0.9999
vn -0.0018 0.0084 1.0000
vn -0.0018 0.0084 -1.0000
vn 0.9999 0.0087 0.0061
vn -1.0000 0.0084 -0.0018
vn -0.9999 0.0087 0.0061
vn -0.0061 0.0087 0.9999
vn 0.0018 0.0084 -1.0000
vn 1.0000 0.0084 -0.0017
usemtl M_BBottom.001
s 1
f 4/1/1 1/2/2 2/3/3
f 2/3/3 3/4/4 4/1/1
f 8/5/5 5/6/6 6/7/7
f 6/7/7 7/8/8 8/5/5
f 12/9/9 9/10/10 10/11/11
f 10/11/11 11/12/12 12/9/9
f 16/13/13 13/14/14 14/15/15
f 14/15/15 15/16/16 16/13/13
f 17/17/17 18/18/13 19/19/18
f 20/20/14 21/21/19 22/22/6
f 23/23/16 24/24/20 25/25/2
f 26/26/15 27/27/21 28/28/10
f 32/29/19 29/30/22 30/31/23
f 30/31/23 31/32/17 32/29/19
f 36/33/24 33/34/25 34/35/6
f 34/35/6 35/36/19 36/33/24
f 40/37/5 37/38/26 38/39/22
f 38/39/22 39/40/6 40/37/5
f 44/41/27 41/42/28 42/43/10
f 42/43/10 43/44/21 44/41/27
f 48/45/9 45/46/29 46/47/26
f 46/47/26 47/48/10 48/45/9
f 52/49/30 49/50/31 50/51/32
f 50/51/32 51/52/20 52/49/30
f 56/53/1 53/54/23 54/55/29
f 54/55/29 55/56/2 56/53/1
f 60/57/17 57/58/18 58/59/33
f 58/59/33 59/60/34 60/57/17
f 64/61/19 61/62/17 62/63/35
f 62/63/35 63/64/24 64/61/19
f 68/65/36 65/66/37 66/67/38
f 66/67/38 67/68/39 68/65/36
f 72/69/40 69/70/41 70/71/42
f 70/71/42 71/72/43 72/69/40
f 76/73/44 73/74/45 74/75/46
f 74/75/46 75/76/47 76/73/44
f 80/77/48 77/78/49 78/79/50
f 78/79/50 79/80/51 80/77/48
f 81/81/52 82/82/53 83/83/54
f 84/84/55 85/85/41 86/86/56
f 87/87/57 88/88/37 89/89/46
f 90/90/58 91/91/45 92/92/59
f 96/93/50 93/94/60 94/95/56
f 94/95/56 95/96/61 96/93/50
f 100/97/41 97/98/62 98/99/63
f 98/99/63 99/100/64 100/97/41
f 104/101/49 101/102/65 102/103/59
f 102/103/59 103/104/66 104/101/49
f 108/105/45 105/106/67 106/107/43
f 106/107/43 107/108/68 108/105/45
f 112/109/48 109/110/69 110/111/46
f 110/111/46 111/112/70 112/109/48
f 116/113/37 113/114/71 114/115/47
f 114/115/47 115/116/72 116/113/37
f 120/117/73 117/118/74 118/119/53
f 118/119/53 119/120/75 120/117/73
f 124/121/39 121/122/76 122/123/52
f 122/123/52 123/124/77 124/121/39
f 128/125/78 125/126/52 126/127/79
f 126/127/79 127/128/63 128/125/78
f 132/129/80 129/130/25 130/131/24
f 130/131/24 131/132/81 132/129/80
f 136/133/82 133/134/28 134/135/83
f 134/135/83 135/136/84 136/133/82
f 140/137/85 137/138/31 138/139/86
f 138/139/86 139/140/87 140/137/85
f 144/141/78 141/142/88 142/143/89
f 142/143/89 143/144/90 144/141/78
f 148/145/63 145/146/24 146/147/35
f 146/147/35 147/148/91 148/145/63
f 152/149/39 149/150/4 150/151/31
f 150/151/31 151/152/36 152/149/39
f 156/153/43 153/154/8 154/155/25
f 154/155/25 155/156/40 156/153/43
f 160/157/47 157/158/86 158/159/11
f 158/159/11 159/160/44 160/157/47
